<svg viewBox="0 0 30 30" xmlns="http://www.w3.org/2000/svg">
  <path d="
    M 17 9
    C 17 9, 23 15, 23 15
    C 23 15, 11 27, 11 27
    C 11 27, 5 27, 5 27
    C 5 27, 5 21, 5 21
    C 5 21, 17 9, 17 9
    " fill="#333" />
  <path d="
      M 17 12
      C 17 12, 9 20, 9 20
      " stroke="#fff" stroke-width="2px" stroke-linecap="round" />
  <path d="
      M 7 21
      C 7 21, 11 25, 11 25
      C 11 25, 10 26, 10 26
      C 10 26, 6 26, 6 26
      C 6 26, 6 21, 6 22
      C 6 22, 7 21, 7 21
      " fill="#fff" />
    <path d="
        M 18 8
        C 18 8, 21 5, 21 5
        C 21 5, 27 11, 27 11
        C 27 11, 24 14, 24 14
        C 24 14, 18 8, 18 8
        " fill="#333" />
</svg>
