<svg viewBox="0 0 200 200" xmlns="http://www.w3.org/2000/svg">
  <path
    d="M 30 175
    C 30 175, 30 40, 30 40
    C 30 40, 67 40, 67 40
    C 67 40, 75 50, 75 50
    C 75 50, 75 95, 75 95
    C 75 95, 67 105, 67 105
    C 67 105, 30 105, 30 105
    " stroke="#000000" stroke-width="30" fill="transparent" />
    <path
      d="M 170 80
      C 170 80, 170 50, 170 50
      C 170 50, 160 40, 160 40
      C 160 40, 130 40, 130 40
      C 130 40, 120 50, 120 50
      C 120 50, 120 150, 120 150
      C 120 150, 130 160, 130 160
      C 130 160, 160 160, 160 160
      C 160 160, 170 150, 170 150
      C 170 150, 170 120, 170 120
      " stroke="#000000" stroke-width="30" fill="transparent" />
</svg>
